Input #0, mov,mp4,m4a,3gp,3g2,mj2, from '/home/hbattu/projects/huberman-gpt/huberman-audio/mp3/tmpdzg96jye.mp4':
  Metadata:
    major_brand     : dash
    minor_version   : 0
    compatible_brands: iso6mp41
    creation_time   : 2022-03-15T18:55:43.000000Z
  Duration: 02:03:53.89, start: 0.000000, bitrate: 129 kb/s
    Stream #0:0(eng): Audio: aac (LC) (mp4a / 0x6134706D), 44100 Hz, stereo, fltp, 0 kb/s (default)
    Metadata:
      creation_time   : 2022-03-15T18:55:43.000000Z
      handler_name    : ISO Media file produced by Google Inc.
Stream mapping:
  Stream #0:0 -> #0:0 (aac (native) -> mp3 (libmp3lame))
Press [q] to stop, [?] for help
[graph_0_in_0_0 @ 0x55fc8f042700] tb:1/44100 samplefmt:fltp samplerate:44100 chlayout:0x3
Output #0, mp3, to '../huberman-audio/mp3/azb3Ih68awQ.mp3':
  Metadata:
    major_brand     : dash
    minor_version   : 0
    compatible_brands: iso6mp41
    TSSE            : Lavf58.29.100
    Stream #0:0(eng): Audio: mp3 (libmp3lame), 44100 Hz, stereo, fltp, delay 1105 (default)
    Metadata:
      creation_time   : 2022-03-15T18:55:43.000000Z
      handler_name    : ISO Media file produced by Google Inc.
      encoder         : Lavc58.54.100 libmp3lame
No more output streams to write to, finishing.
size=  116155kB time=02:03:53.90 bitrate= 128.0kbits/s speed=72.9x    
[AVIOContext @ 0x55fc8ef32900] Statistics: 0 seeks, 204 writeouts
video:0kB audio:116155kB subtitle:0kB other streams:0kB global headers:0kB muxing overhead: 0.000291%
Input file #0 (/home/hbattu/projects/huberman-gpt/huberman-audio/mp3/tmpdzg96jye.mp4):
  Input stream #0:0 (audio): 320151 packets read (118942267 bytes); 320151 frames decoded (327834624 samples); 
  Total: 320151 packets (118942267 bytes) demuxed
Output file #0 (../huberman-audio/mp3/azb3Ih68awQ.mp3):
  Output stream #0:0 (audio): 284579 frames encoded (327834624 samples); 284580 packets muxed (118942824 bytes); 
  Total: 284580 packets (118942824 bytes) muxed
[AVIOContext @ 0x55fc8ef5db00] Statistics: 2 seeks, 455 writeouts
[AVIOContext @ 0x55fc8ef3b880] Statistics: 120309955 bytes read, 0 seeks
